<?xml version="1.0" encoding="utf-8"?>
<!-- Generator: Adobe Illustrator 19.1.0, SVG Export Plug-In . SVG Version: 6.00 Build 0)  -->
<svg version="1.1" xmlns="http://www.w3.org/2000/svg" xmlns:xlink="http://www.w3.org/1999/xlink" x="0px" y="0px"
	 viewBox="0 0 64 64" style="enable-background:new 0 0 64 64;" xml:space="preserve">
<style type="text/css">
	.st0{display:none;}
	.st1{display:inline;fill:#FFCDD2;}
	.st2{display:inline;fill:#FFFFFF;}
	.st3{display:inline;}
	.st4{fill:#03A9F4;}
	.st5{fill:none;stroke:#03A9F4;stroke-linecap:round;stroke-miterlimit:10;}
	.st6{display:inline;fill:#03A9F4;}
	.st7{display:inline;fill:none;stroke:#03A9F4;stroke-linecap:round;stroke-miterlimit:10;}
	.st8{fill:#2196F3;}
	.st9{fill:#FFFFFF;}
	.st10{fill:none;stroke:#03A9F4;stroke-width:2;stroke-miterlimit:10;}
	.st11{fill:none;stroke:#03A9F4;stroke-width:2;stroke-linecap:round;stroke-miterlimit:10;}
	.st12{fill:#697175;}
	.st13{display:inline;fill:#697175;}
	.st14{fill:#EEEEEE;}
	.st15{fill:#E0E0E0;}
	.st16{display:inline;fill:#E0E0E0;}
	.st17{display:inline;fill:#EEEEEE;}
	.st18{display:inline;fill-rule:evenodd;clip-rule:evenodd;fill:#E0E0E0;}
	.st19{display:inline;fill-rule:evenodd;clip-rule:evenodd;fill:#EEEEEE;}
	.st20{display:inline;fill-rule:evenodd;clip-rule:evenodd;fill:#697175;}
	.st21{fill-rule:evenodd;clip-rule:evenodd;fill:#697175;}
</style>
<g id="Guides">
</g>
<g id="White_Space" class="st0">
	<rect class="st1" width="64" height="64"/>
	<rect x="8" y="8" class="st2" width="48" height="48"/>
</g>
<g id="Icon">
	<g id="Mobile_outline" class="st0">
		<g class="st3">
			<path class="st4" d="M45.1,9c0.5,0,1,0.4,1,1v44.1c0,0.5-0.4,1-1,1H18.9c-0.5,0-1-0.4-1-1V9.9c0-0.5,0.4-1,1-1H45.1 M45.1,8H18.9
				C17.9,8,17,8.9,17,9.9v44.1c0,1.1,0.9,1.9,1.9,1.9h26.1c1.1,0,1.9-0.9,1.9-1.9V9.9C47,8.9,46.1,8,45.1,8L45.1,8z"/>
		</g>
		<g class="st3">
			<path class="st4" d="M32,49.1c0.8,0,1.5,0.7,1.5,1.5s-0.7,1.5-1.5,1.5c-0.8,0-1.5-0.7-1.5-1.5S31.2,49.1,32,49.1 M32,48.1
				c-1.4,0-2.5,1.1-2.5,2.5s1.1,2.5,2.5,2.5s2.5-1.1,2.5-2.5S33.4,48.1,32,48.1L32,48.1z"/>
		</g>
		<g class="st3">
			<path class="st4" d="M43,15.1v30H21v-30H43 M44,14.1H20v32h24V14.1L44,14.1z"/>
		</g>
		<g class="st3">
			<g>
				<path class="st4" d="M27,10.6c-0.6,0-1,0.4-1,1s0.4,1,1,1s1-0.4,1-1S27.6,10.6,27,10.6L27,10.6z"/>
			</g>
			<line class="st5" x1="30" y1="11.6" x2="38" y2="11.6"/>
		</g>
		<g class="st3">
			<rect x="20" y="14.2" class="st4" width="24" height="5"/>
		</g>
		<circle class="st6" cx="32" cy="27.2" r="4.8"/>
		<line class="st7" x1="23" y1="35.8" x2="41" y2="35.8"/>
		<line class="st7" x1="23" y1="38.8" x2="41" y2="38.8"/>
		<line class="st7" x1="23" y1="41.8" x2="41" y2="41.8"/>
	</g>
	<g id="Mobile_Fill_2_" class="st0">
		<g class="st3">
			<path class="st8" d="M94.9,9c0.5,0,1,0.4,1,1v44.1c0,0.5-0.4,1-1,1H68.8c-0.5,0-1-0.4-1-1V9.9c0-0.5,0.4-1,1-1H94.9 M94.9,8H68.8
				c-1.1,0-1.9,0.9-1.9,1.9v44.1c0,1.1,0.9,1.9,1.9,1.9h26.1c1.1,0,1.9-0.9,1.9-1.9V9.9C96.8,8.9,96,8,94.9,8L94.9,8z"/>
		</g>
		<g class="st3">
			<path class="st8" d="M81.8,49.1c0.8,0,1.5,0.7,1.5,1.5s-0.7,1.5-1.5,1.5c-0.8,0-1.5-0.7-1.5-1.5S81,49.1,81.8,49.1 M81.8,48.1
				c-1.4,0-2.5,1.1-2.5,2.5s1.1,2.5,2.5,2.5c1.4,0,2.5-1.1,2.5-2.5S83.2,48.1,81.8,48.1L81.8,48.1z"/>
		</g>
		<g class="st3">
			<path class="st8" d="M92.8,15.1v30h-22v-30H92.8 M93.8,14.1h-24v32h24V14.1L93.8,14.1z"/>
		</g>
		<g class="st3">
			<g>
				<path class="st8" d="M76.8,10.6c-0.6,0-1,0.4-1,1s0.4,1,1,1c0.6,0,1-0.4,1-1S77.4,10.6,76.8,10.6L76.8,10.6z"/>
			</g>
			<g>
				<path class="st8" d="M87.8,12.1h-8c-0.3,0-0.5-0.2-0.5-0.5s0.2-0.5,0.5-0.5h8c0.3,0,0.5,0.2,0.5,0.5S88.1,12.1,87.8,12.1z"/>
			</g>
		</g>
		<g class="st3">
			<rect x="69.8" y="14.2" class="st8" width="24" height="5"/>
		</g>
		<g class="st3">
			<circle class="st8" cx="81.8" cy="27.2" r="4.8"/>
		</g>
		<g class="st3">
			<path class="st8" d="M90.8,36.3h-18c-0.3,0-0.5-0.2-0.5-0.5s0.2-0.5,0.5-0.5h18c0.3,0,0.5,0.2,0.5,0.5S91.1,36.3,90.8,36.3z"/>
		</g>
		<g class="st3">
			<path class="st8" d="M90.8,39.3h-18c-0.3,0-0.5-0.2-0.5-0.5s0.2-0.5,0.5-0.5h18c0.3,0,0.5,0.2,0.5,0.5S91.1,39.3,90.8,39.3z"/>
		</g>
		<g class="st3">
			<path class="st8" d="M90.8,42.3h-18c-0.3,0-0.5-0.2-0.5-0.5s0.2-0.5,0.5-0.5h18c0.3,0,0.5,0.2,0.5,0.5S91.1,42.3,90.8,42.3z"/>
		</g>
	</g>
	<g id="SEO_Icon_Outline" class="st0">
		<g class="st3">
			<path class="st4" d="M55,19v29.2H9V19H55 M56,18H8v31.1h48V18L56,18z"/>
		</g>
		<g class="st3">
			<path class="st4" d="M54,15.9c0.6,0,1,0.5,1,1V18H9v-1.2c0-0.6,0.5-1,1-1H54 M54,14.9H10c-1.1,0-2,0.9-2,2V19h48v-2.1
				C56,15.8,55.1,14.9,54,14.9L54,14.9z"/>
		</g>
		<g class="st3">
			<path class="st4" d="M10,16.4c-0.3,0-0.5,0.2-0.5,0.5s0.2,0.5,0.5,0.5s0.5-0.2,0.5-0.5S10.3,16.4,10,16.4L10,16.4z"/>
		</g>
		<g class="st3">
			<path class="st4" d="M11.5,16.4c-0.3,0-0.5,0.2-0.5,0.5s0.2,0.5,0.5,0.5s0.5-0.2,0.5-0.5S11.8,16.4,11.5,16.4L11.5,16.4z"/>
		</g>
		<g class="st3">
			<path class="st4" d="M13,16.4c-0.3,0-0.5,0.2-0.5,0.5s0.2,0.5,0.5,0.5s0.5-0.2,0.5-0.5S13.3,16.4,13,16.4L13,16.4z"/>
		</g>
		<line class="st7" x1="17.5" y1="16.9" x2="53.5" y2="16.9"/>
		<rect x="11.5" y="21.6" class="st6" width="14" height="24"/>
		<rect x="28" y="21.6" class="st6" width="24.5" height="6"/>
		<line class="st7" x1="28.6" y1="39.1" x2="51.5" y2="39.1"/>
		<line class="st7" x1="28.6" y1="42.1" x2="51.5" y2="42.1"/>
		<line class="st7" x1="28.6" y1="33.1" x2="51.5" y2="33.1"/>
		<line class="st7" x1="28.6" y1="36.1" x2="51.5" y2="36.1"/>
		<line class="st7" x1="28.6" y1="30.1" x2="38.1" y2="30.1"/>
		<line class="st7" x1="28.6" y1="45.1" x2="51.5" y2="45.1"/>
		<circle class="st2" cx="28.2" cy="33.1" r="8.5"/>
		<g class="st3">
			<path class="st9" d="M40.3,46.6c-0.4,0-0.8-0.2-1.1-0.4l-7.1-7.1c-0.6-0.6-0.6-1.5,0-2.1c0.3-0.3,0.7-0.4,1.1-0.4
				s0.8,0.2,1.1,0.4l7.1,7.1c0.6,0.6,0.6,1.5,0,2.1C41,46.4,40.7,46.6,40.3,46.6z"/>
			<path class="st9" d="M40.3,46.1c-0.3,0-0.5-0.1-0.7-0.3l-7.1-7.1c-0.4-0.4-0.4-1,0-1.4s1-0.4,1.4,0l7.1,7.1c0.4,0.4,0.4,1,0,1.4
				C40.8,46,40.5,46.1,40.3,46.1z"/>
		</g>
		<g class="st3">
			<circle class="st10" cx="28.2" cy="33.1" r="7"/>
			<line class="st11" x1="33.2" y1="38" x2="40.3" y2="45.1"/>
		</g>
		<line class="st7" x1="28.6" y1="33.1" x2="35.2" y2="33.1"/>
		<line class="st7" x1="28.6" y1="36.1" x2="34.6" y2="36.1"/>
		<line class="st7" x1="28.6" y1="30.1" x2="34.6" y2="30.1"/>
	</g>
	<g class="st0">
		<g class="st3">
			<path class="st12" d="M45.1,9c0.5,0,1,0.4,1,1v44.1c0,0.5-0.4,1-1,1H18.9c-0.5,0-1-0.4-1-1V9.9c0-0.5,0.4-1,1-1H45.1 M45.1,8
				H18.9C17.9,8,17,8.9,17,9.9v44.1c0,1.1,0.9,1.9,1.9,1.9h26.1c1.1,0,1.9-0.9,1.9-1.9V9.9C47,8.9,46.1,8,45.1,8L45.1,8z"/>
		</g>
		<g class="st3">
			<path class="st12" d="M32,49.1c0.8,0,1.5,0.7,1.5,1.5s-0.7,1.5-1.5,1.5c-0.8,0-1.5-0.7-1.5-1.5S31.2,49.1,32,49.1 M32,48.1
				c-1.4,0-2.5,1.1-2.5,2.5s1.1,2.5,2.5,2.5s2.5-1.1,2.5-2.5S33.4,48.1,32,48.1L32,48.1z"/>
		</g>
		<g class="st3">
			<path class="st12" d="M43,15.1v30H21v-30H43 M44,14.1H20v32h24V14.1L44,14.1z"/>
		</g>
		<g class="st3">
			<g>
				<path class="st12" d="M27,10.6c-0.6,0-1,0.4-1,1s0.4,1,1,1s1-0.4,1-1S27.6,10.6,27,10.6L27,10.6z"/>
			</g>
			<g>
				<path class="st12" d="M38,12.1h-8c-0.3,0-0.5-0.2-0.5-0.5s0.2-0.5,0.5-0.5h8c0.3,0,0.5,0.2,0.5,0.5S38.3,12.1,38,12.1z"/>
			</g>
		</g>
		<g class="st3">
			<rect x="20" y="14.2" class="st12" width="24" height="5"/>
		</g>
		<g class="st3">
			<circle class="st12" cx="32" cy="25.4" r="4.8"/>
		</g>
		<g class="st3">
			<path class="st12" d="M41,34.1H23c-0.3,0-0.5-0.2-0.5-0.5s0.2-0.5,0.5-0.5h18c0.3,0,0.5,0.2,0.5,0.5S41.3,34.1,41,34.1z"/>
		</g>
		<g class="st3">
			<path class="st12" d="M41,37.1H23c-0.3,0-0.5-0.2-0.5-0.5s0.2-0.5,0.5-0.5h18c0.3,0,0.5,0.2,0.5,0.5S41.3,37.1,41,37.1z"/>
		</g>
		<path class="st13" d="M37.5,40.1h-11c-0.6,0-1,0.4-1,1v1.5c0,0.6,0.4,1,1,1h11c0.6,0,1-0.4,1-1v-1.5
			C38.5,40.6,38.1,40.1,37.5,40.1z"/>
	</g>
	<g>
		<rect x="20" y="14.1" class="st9" width="24" height="32"/>
		<g>
			<path class="st12" d="M45.1,8H18.9C17.9,8,17,8.9,17,9.9v44.1c0,1.1,0.9,1.9,1.9,1.9h26.1c1.1,0,1.9-0.9,1.9-1.9V9.9
				C47,8.9,46.1,8,45.1,8z M29.5,50.6c0-1.4,1.1-2.5,2.5-2.5s2.5,1.1,2.5,2.5s-1.1,2.5-2.5,2.5S29.5,52,29.5,50.6z M44,46.1H20v-32
				h24V46.1z M26,11.6c0-0.5,0.5-1,1-1s1,0.5,1,1s-0.5,1-1,1S26,12.1,26,11.6z M29.5,11.6c0-0.3,0.2-0.5,0.5-0.5h8
				c0.3,0,0.5,0.2,0.5,0.5c0,0.3-0.2,0.5-0.5,0.5h-8C29.7,12.1,29.5,11.8,29.5,11.6z"/>
		</g>
		<g>
			<circle class="st14" cx="32" cy="50.6" r="2.5"/>
		</g>
		<g>
			<g>
				<circle class="st14" cx="27" cy="11.6" r="1"/>
			</g>
			<g>
				<path class="st14" d="M38.5,11.6c0,0.3-0.2,0.5-0.5,0.5h-8c-0.3,0-0.5-0.2-0.5-0.5c0-0.3,0.2-0.5,0.5-0.5h8
					C38.3,11.1,38.5,11.3,38.5,11.6z"/>
			</g>
		</g>
		<g>
			<circle class="st14" cx="32" cy="25.4" r="4.8"/>
		</g>
		<g>
			<path class="st14" d="M41,34.1H23c-0.3,0-0.5-0.2-0.5-0.5s0.2-0.5,0.5-0.5h18c0.3,0,0.5,0.2,0.5,0.5S41.3,34.1,41,34.1z"/>
		</g>
		<g>
			<path class="st14" d="M41,37.1H23c-0.3,0-0.5-0.2-0.5-0.5s0.2-0.5,0.5-0.5h18c0.3,0,0.5,0.2,0.5,0.5S41.3,37.1,41,37.1z"/>
		</g>
		<path class="st14" d="M37.5,40.1h-11c-0.6,0-1,0.4-1,1v1.5c0,0.6,0.4,1,1,1h11c0.6,0,1-0.4,1-1v-1.5
			C38.5,40.6,38.1,40.1,37.5,40.1z"/>
		<g>
			<path class="st9" d="M20,14.1v32h24v-32H20z M43,45.1H21v-30h22V45.1z"/>
		</g>
		<g>
			<rect x="20" y="14.1" class="st15" width="24" height="5"/>
		</g>
	</g>
	<g class="st0">
		<rect x="9" y="19" class="st2" width="46" height="29.2"/>
		<g class="st3">
			<g>
				<path class="st12" d="M55,19v29.2H9V19H55 M56,18H8v31.1h48V18L56,18z"/>
			</g>
			<g>
				<path class="st12" d="M56,16.9V19H8v-2.1c0-1.1,0.9-2,2-2h44C55.1,14.9,56,15.8,56,16.9z"/>
			</g>
			<g>
				<path class="st9" d="M10,16.4c-0.3,0-0.5,0.2-0.5,0.5s0.2,0.5,0.5,0.5s0.5-0.2,0.5-0.5S10.3,16.4,10,16.4L10,16.4z"/>
			</g>
			<g>
				<path class="st14" d="M11.5,16.4c-0.3,0-0.5,0.2-0.5,0.5s0.2,0.5,0.5,0.5s0.5-0.2,0.5-0.5S11.8,16.4,11.5,16.4L11.5,16.4z"/>
			</g>
			<g>
				<path class="st14" d="M13,16.4c-0.3,0-0.5,0.2-0.5,0.5s0.2,0.5,0.5,0.5s0.5-0.2,0.5-0.5S13.3,16.4,13,16.4L13,16.4z"/>
			</g>
			<g>
				<path class="st14" d="M53.5,17.4h-36c-0.3,0-0.5-0.2-0.5-0.5s0.2-0.5,0.5-0.5h36c0.3,0,0.5,0.2,0.5,0.5S53.8,17.4,53.5,17.4z"/>
			</g>
			<path class="st14" d="M38.1,29.6H36c0.1,0.3,0.3,0.7,0.4,1h1.7c0.3,0,0.5-0.2,0.5-0.5S38.4,29.6,38.1,29.6z"/>
			<path class="st14" d="M51.5,32.6H36.7c0,0.2,0,0.3,0,0.5c0,0.2,0,0.3,0,0.5h14.8c0.3,0,0.5-0.2,0.5-0.5S51.8,32.6,51.5,32.6z"/>
			<path class="st14" d="M51.5,35.6H36.4c-0.1,0.3-0.2,0.7-0.4,1h15.5c0.3,0,0.5-0.2,0.5-0.5S51.8,35.6,51.5,35.6z"/>
			<path class="st14" d="M19.7,33.1c0-3.7,2.4-6.9,5.8-8v-3.4h-14v24h14v-4.5C22.1,40,19.7,36.8,19.7,33.1z"/>
			<path class="st14" d="M28,21.6v3c0.1,0,0.2,0,0.2,0c2.6,0,4.9,1.2,6.5,3h17.8v-6H28z"/>
			<g>
				<path class="st14" d="M32.1,39.1c-0.1-0.1-0.3-0.3-0.3-0.5h-3.2c-0.3,0-0.5,0.2-0.5,0.5s0.2,0.5,0.5,0.5h4L32.1,39.1z"/>
				<path class="st14" d="M51.5,38.6H35.9l1,1h14.6c0.3,0,0.5-0.2,0.5-0.5S51.8,38.6,51.5,38.6z"/>
			</g>
			<g>
				<path class="st14" d="M35.2,33.6h-6.6c-0.3,0-0.5-0.2-0.5-0.5s0.2-0.5,0.5-0.5h6.6c0.3,0,0.5,0.2,0.5,0.5S35.5,33.6,35.2,33.6z"
					/>
			</g>
			<g>
				<path class="st14" d="M34.6,36.6h-6c-0.3,0-0.5-0.2-0.5-0.5s0.2-0.5,0.5-0.5h6c0.3,0,0.5,0.2,0.5,0.5S34.8,36.6,34.6,36.6z"/>
			</g>
			<g>
				<path class="st14" d="M34.6,30.6h-6c-0.3,0-0.5-0.2-0.5-0.5s0.2-0.5,0.5-0.5h6c0.3,0,0.5,0.2,0.5,0.5S34.8,30.6,34.6,30.6z"/>
			</g>
			<g>
				<path class="st14" d="M34.6,41.6h-6c-0.3,0-0.5,0.2-0.5,0.5s0.2,0.5,0.5,0.5h7L34.6,41.6z"/>
				<path class="st14" d="M51.5,41.6H38.9l1,1h11.6c0.3,0,0.5-0.2,0.5-0.5S51.8,41.6,51.5,41.6z"/>
			</g>
			<g>
				<path class="st14" d="M51.5,44.6h-9.8c0.1,0.3,0.1,0.7,0,1h9.8c0.3,0,0.5-0.2,0.5-0.5S51.8,44.6,51.5,44.6z"/>
				<path class="st14" d="M37.6,44.6h-9c-0.3,0-0.5,0.2-0.5,0.5s0.2,0.5,0.5,0.5h10L37.6,44.6z"/>
			</g>
			<g>
				<g>
					<path class="st12" d="M28.2,41.1c-2,0-4.1-0.8-5.7-2.3c-3.1-3.1-3.1-8.2,0-11.3c3.1-3.1,8.2-3.1,11.3,0l0,0
						c3.1,3.1,3.1,8.2,0,11.3C32.3,40.3,30.3,41.1,28.2,41.1z M28.2,27.1c-1.5,0-3.1,0.6-4.2,1.8c-2.3,2.3-2.3,6.1,0,8.5
						c2.3,2.3,6.1,2.3,8.5,0c2.3-2.3,2.3-6.1,0-8.5C31.3,27.7,29.8,27.1,28.2,27.1z"/>
				</g>
				<g>
					<path class="st12" d="M40.3,46.1c-0.3,0-0.5-0.1-0.7-0.3l-7.1-7.1c-0.4-0.4-0.4-1,0-1.4s1-0.4,1.4,0l7.1,7.1
						c0.4,0.4,0.4,1,0,1.4C40.8,46,40.5,46.1,40.3,46.1z"/>
				</g>
			</g>
		</g>
	</g>
	<g class="st0">
		<polygon class="st16" points="39.8,51.7 24.2,51.7 25.5,44.7 38.5,44.7 		"/>
		<path class="st13" d="M56,13.8v24H8v-24c0-1.1,0.9-2,2-2h44C55.1,11.8,56,12.6,56,13.8z"/>
		<path class="st17" d="M56,37.8v7c0,0.6-0.4,1-1,1H9c-0.6,0-1-0.4-1-1v-7H56z"/>
		<path class="st13" d="M33.5,41.8c0,0.8-0.7,1.5-1.5,1.5s-1.5-0.7-1.5-1.5c0-0.8,0.7-1.5,1.5-1.5S33.5,40.9,33.5,41.8z"/>
		<path class="st17" d="M42.7,53.7V54c0,1.1-0.9,2-2,2H23.3c-1.1,0-2-0.9-2-2v-0.3c0-1.1,0.9-2,2-2h17.3
			C41.8,51.7,42.7,52.6,42.7,53.7z"/>
		<g class="st3">
			<rect x="10.5" y="14.3" class="st9" width="43" height="20.9"/>
			<rect x="10.5" y="14.3" class="st14" width="14" height="20.8"/>
		</g>
		<g class="st3">
			<path class="st12" d="M17,16.7h-5c-0.3,0-0.5-0.2-0.5-0.5s0.2-0.5,0.5-0.5h5c0.3,0,0.5,0.2,0.5,0.5S17.3,16.7,17,16.7z"/>
		</g>
		<g class="st3">
			<g>
				<path class="st14" d="M29,17.8h-2c-0.3,0-0.5-0.2-0.5-0.5s0.2-0.5,0.5-0.5h2c0.3,0,0.5,0.2,0.5,0.5S29.3,17.8,29,17.8z"/>
			</g>
			<g>
				<path class="st14" d="M42.8,17.8h-2c-0.3,0-0.5-0.2-0.5-0.5s0.2-0.5,0.5-0.5h2c0.3,0,0.5,0.2,0.5,0.5S43.1,17.8,42.8,17.8z"/>
			</g>
			<g>
				<path class="st12" d="M45.3,17.8h-0.5c-0.3,0-0.5-0.2-0.5-0.5s0.2-0.5,0.5-0.5h0.5c0.3,0,0.5,0.2,0.5,0.5S45.6,17.8,45.3,17.8z"
					/>
			</g>
			<g>
				<path class="st12" d="M42.5,20.8H42c-0.3,0-0.5-0.2-0.5-0.5s0.2-0.5,0.5-0.5h0.5c0.3,0,0.5,0.2,0.5,0.5S42.8,20.8,42.5,20.8z"/>
			</g>
			<g>
				<path class="st14" d="M51.7,17.8h-4.4c-0.3,0-0.5-0.2-0.5-0.5s0.2-0.5,0.5-0.5h4.4c0.3,0,0.5,0.2,0.5,0.5S51.9,17.8,51.7,17.8z"
					/>
			</g>
			<g>
				<path class="st12" d="M32.9,20.8h-4.4c-0.3,0-0.5-0.2-0.5-0.5s0.2-0.5,0.5-0.5h4.4c0.3,0,0.5,0.2,0.5,0.5S33.2,20.8,32.9,20.8z"
					/>
			</g>
			<g>
				<path class="st14" d="M41.2,23.8h-4.4c-0.3,0-0.5-0.2-0.5-0.5s0.2-0.5,0.5-0.5h4.4c0.3,0,0.5,0.2,0.5,0.5S41.4,23.8,41.2,23.8z"
					/>
			</g>
			<g>
				<path class="st14" d="M47.5,23.8h-4.4c-0.3,0-0.5-0.2-0.5-0.5s0.2-0.5,0.5-0.5h4.4c0.3,0,0.5,0.2,0.5,0.5S47.8,23.8,47.5,23.8z"
					/>
			</g>
			<g>
				<path class="st14" d="M38.8,17.8H31c-0.3,0-0.5-0.2-0.5-0.5s0.2-0.5,0.5-0.5h7.8c0.3,0,0.5,0.2,0.5,0.5S39.1,17.8,38.8,17.8z"/>
			</g>
			<g>
				<path class="st14" d="M34.8,23.8H27c-0.3,0-0.5-0.2-0.5-0.5s0.2-0.5,0.5-0.5h7.8c0.3,0,0.5,0.2,0.5,0.5S35.1,23.8,34.8,23.8z"/>
			</g>
			<g>
				<path class="st14" d="M40,20.8h-5.2c-0.3,0-0.5-0.2-0.5-0.5s0.2-0.5,0.5-0.5H40c0.3,0,0.5,0.2,0.5,0.5S40.3,20.8,40,20.8z"/>
			</g>
			<g>
				<path class="st12" d="M42.8,26.8h-2c-0.3,0-0.5-0.2-0.5-0.5s0.2-0.5,0.5-0.5h2c0.3,0,0.5,0.2,0.5,0.5S43.1,26.8,42.8,26.8z"/>
			</g>
			<g>
				<path class="st12" d="M45.3,26.8h-0.5c-0.3,0-0.5-0.2-0.5-0.5s0.2-0.5,0.5-0.5h0.5c0.3,0,0.5,0.2,0.5,0.5S45.6,26.8,45.3,26.8z"
					/>
			</g>
			<g>
				<path class="st12" d="M42.5,29.8H42c-0.3,0-0.5-0.2-0.5-0.5s0.2-0.5,0.5-0.5h0.5c0.3,0,0.5,0.2,0.5,0.5S42.8,29.8,42.5,29.8z"/>
			</g>
			<g>
				<path class="st14" d="M51.7,26.8h-4.4c-0.3,0-0.5-0.2-0.5-0.5s0.2-0.5,0.5-0.5h4.4c0.3,0,0.5,0.2,0.5,0.5S51.9,26.8,51.7,26.8z"
					/>
			</g>
			<g>
				<path class="st12" d="M32.9,29.8h-4.4c-0.3,0-0.5-0.2-0.5-0.5s0.2-0.5,0.5-0.5h4.4c0.3,0,0.5,0.2,0.5,0.5S33.2,29.8,32.9,29.8z"
					/>
			</g>
			<g>
				<path class="st12" d="M41.2,32.8h-4.4c-0.3,0-0.5-0.2-0.5-0.5c0-0.3,0.2-0.5,0.5-0.5h4.4c0.3,0,0.5,0.2,0.5,0.5
					C41.7,32.5,41.4,32.8,41.2,32.8z"/>
			</g>
			<g>
				<path class="st14" d="M47.5,32.8h-4.4c-0.3,0-0.5-0.2-0.5-0.5c0-0.3,0.2-0.5,0.5-0.5h4.4c0.3,0,0.5,0.2,0.5,0.5
					C48,32.5,47.8,32.8,47.5,32.8z"/>
			</g>
			<g>
				<path class="st14" d="M38.8,26.8H31c-0.3,0-0.5-0.2-0.5-0.5s0.2-0.5,0.5-0.5h7.8c0.3,0,0.5,0.2,0.5,0.5S39.1,26.8,38.8,26.8z"/>
			</g>
			<g>
				<path class="st14" d="M34.8,32.8h-3.6c-0.3,0-0.5-0.2-0.5-0.5c0-0.3,0.2-0.5,0.5-0.5h3.6c0.3,0,0.5,0.2,0.5,0.5
					C35.3,32.5,35.1,32.8,34.8,32.8z"/>
			</g>
			<g>
				<path class="st12" d="M40,29.8h-5.2c-0.3,0-0.5-0.2-0.5-0.5s0.2-0.5,0.5-0.5H40c0.3,0,0.5,0.2,0.5,0.5S40.3,29.8,40,29.8z"/>
			</g>
		</g>
		<g class="st3">
			<path class="st12" d="M17,28.7h-5c-0.3,0-0.5-0.2-0.5-0.5s0.2-0.5,0.5-0.5h5c0.3,0,0.5,0.2,0.5,0.5S17.3,28.7,17,28.7z"/>
		</g>
		<g class="st3">
			<path class="st12" d="M20,25.7h-5c-0.3,0-0.5-0.2-0.5-0.5s0.2-0.5,0.5-0.5h5c0.3,0,0.5,0.2,0.5,0.5S20.3,25.7,20,25.7z"/>
		</g>
		<g class="st3">
			<path class="st12" d="M20,31.7h-5c-0.3,0-0.5-0.2-0.5-0.5s0.2-0.5,0.5-0.5h5c0.3,0,0.5,0.2,0.5,0.5S20.3,31.7,20,31.7z"/>
		</g>
		<g class="st3">
			<path class="st12" d="M20,19.7h-8c-0.3,0-0.5-0.2-0.5-0.5s0.2-0.5,0.5-0.5h8c0.3,0,0.5,0.2,0.5,0.5S20.3,19.7,20,19.7z"/>
		</g>
		<g class="st3">
			<path class="st12" d="M21.3,22.7H12c-0.3,0-0.5-0.2-0.5-0.5s0.2-0.5,0.5-0.5h9.3c0.3,0,0.5,0.2,0.5,0.5S21.6,22.7,21.3,22.7z"/>
		</g>
	</g>
	<g class="st0">
		<path class="st13" d="M10,28.1l3.7,19.7c0.2,0.9,1,1.6,2,1.6h32.7c1,0,1.8-0.7,2-1.6L54,28.1H10z M18.5,44.7c0,0.6-0.4,1-1,1h-1
			c-0.6,0-1-0.4-1-1v-12c0-0.6,0.4-1,1-1h1c0.6,0,1,0.4,1,1V44.7z M23.5,44.7c0,0.6-0.4,1-1,1h-1c-0.6,0-1-0.4-1-1v-12
			c0-0.6,0.4-1,1-1h1c0.6,0,1,0.4,1,1V44.7z M28.5,44.7c0,0.6-0.4,1-1,1h-1c-0.6,0-1-0.4-1-1v-12c0-0.6,0.4-1,1-1h1c0.6,0,1,0.4,1,1
			V44.7z M33.5,44.7c0,0.6-0.4,1-1,1h-1c-0.6,0-1-0.4-1-1v-12c0-0.6,0.4-1,1-1h1c0.6,0,1,0.4,1,1V44.7z M38.5,44.7c0,0.6-0.4,1-1,1
			h-1c-0.6,0-1-0.4-1-1v-12c0-0.6,0.4-1,1-1h1c0.6,0,1,0.4,1,1V44.7z M43.5,44.7c0,0.6-0.4,1-1,1h-1c-0.6,0-1-0.4-1-1v-12
			c0-0.6,0.4-1,1-1h1c0.6,0,1,0.4,1,1V44.7z M48.5,44.7c0,0.6-0.4,1-1,1h-1c-0.6,0-1-0.4-1-1v-12c0-0.6,0.4-1,1-1h1c0.6,0,1,0.4,1,1
			V44.7z"/>
		<path class="st17" d="M55,26.1H9c-0.6,0-1,0.4-1,1v0c0,0.6,0.4,1,1,1h46c0.6,0,1-0.4,1-1v0C56,26.5,55.6,26.1,55,26.1z"/>
		<circle class="st16" cx="32" cy="27.1" r="2.5"/>
		<g class="st3">
			<path class="st12" d="M32,28.1c-0.3,0-0.5-0.1-0.7-0.3c-0.4-0.4-0.4-1,0-1.4l12.5-12.5c0.4-0.4,1-0.4,1.4,0s0.4,1,0,1.4
				L32.7,27.8C32.5,28,32.3,28.1,32,28.1z"/>
		</g>
		<path class="st18" d="M35,34.5h-6c-1.1,0-2,0.9-2,2v4.4c0,1.1,0.9,2,2,2h6c1.1,0,2-0.9,2-2v-4.4C37,35.4,36.1,34.5,35,34.5z"/>
		<path class="st19" d="M35,34.5h-6c-1.1,0-2,0.9-2,2v4.4c0,1.1,0.9,2,2,2h6c1.1,0,2-0.9,2-2v-4.4C37,35.4,36.1,34.5,35,34.5z"/>
		<path class="st20" d="M29,43.9c-1.7,0-3-1.3-3-3v-4.4c0-1.7,1.3-3,3-3h6c1.7,0,3,1.3,3,3v4.4c0,1.7-1.3,3-3,3H29z"/>
		<path class="st19" d="M35,34.5h-6c-1.1,0-2,0.9-2,2v4.4c0,1.1,0.9,2,2,2h6c1.1,0,2-0.9,2-2v-4.4C37,35.4,36.1,34.5,35,34.5z"/>
		<g id="Logo" class="st3">
			<path id="Shape" class="st21" d="M34,40.7v-3.1l-2-1.2l-2,1.2v3.1l-0.7-0.4v-3l2.7-1.7l2.7,1.7v3L34,40.7z M31.6,41.1l0.4,0.2
				l0.4-0.2v-3.6l0.9,0.5v2.5v0.6v0.1L32,41.9l-1.3-0.8v-0.1v-0.6V38l0.9-0.5V41.1z"/>
			<path id="Highlight" class="st21" d="M34,37.6l-2-1.2l-2,1.2v0l-0.7-0.4l2.7-1.7l2.7,1.7L34,37.6L34,37.6z M33.3,38l-0.9,0.5v-1
				L33.3,38L33.3,38z M31.6,38.5L30.7,38v0l0.9-0.5V38.5z"/>
		</g>
	</g>
	<g class="st0">
		<g class="st3">
			<g>
				<g>
					<rect x="16.8" y="17.2" class="st9" width="38.4" height="24.3"/>
					<g>
						<g>
							<path class="st12" d="M55.2,17.2v24.3H16.8V17.2H55.2 M56,16.4H16v26h40V16.4L56,16.4z"/>
						</g>
						<g>
							<path class="st12" d="M56,15.5v1.8H16v-1.8c0-0.9,0.7-1.7,1.7-1.7h36.7C55.3,13.8,56,14.5,56,15.5z"/>
						</g>
						<g>
							<path class="st9" d="M17.7,15c-0.2,0-0.4,0.2-0.4,0.4s0.2,0.4,0.4,0.4c0.2,0,0.4-0.2,0.4-0.4S17.9,15,17.7,15L17.7,15z"/>
						</g>
						<g>
							<path class="st14" d="M18.9,15c-0.2,0-0.4,0.2-0.4,0.4s0.2,0.4,0.4,0.4c0.2,0,0.4-0.2,0.4-0.4S19.1,15,18.9,15L18.9,15z"/>
						</g>
						<g>
							<path class="st14" d="M20.2,15c-0.2,0-0.4,0.2-0.4,0.4s0.2,0.4,0.4,0.4c0.2,0,0.4-0.2,0.4-0.4S20.4,15,20.2,15L20.2,15z"/>
						</g>
						<g>
							<path class="st14" d="M53.9,15.9h-30c-0.2,0-0.4-0.2-0.4-0.4c0-0.2,0.2-0.4,0.4-0.4h30c0.2,0,0.4,0.2,0.4,0.4
								C54.3,15.7,54.1,15.9,53.9,15.9z"/>
						</g>
						<path class="st14" d="M41.1,26h-1.8c0.1,0.3,0.2,0.5,0.3,0.8h1.4c0.2,0,0.4-0.2,0.4-0.4S41.3,26,41.1,26z"/>
						<path class="st14" d="M52.2,28.5H39.9c0,0.1,0,0.3,0,0.4c0,0.1,0,0.3,0,0.4h12.3c0.2,0,0.4-0.2,0.4-0.4
							C52.7,28.7,52.5,28.5,52.2,28.5z"/>
						<path class="st14" d="M52.2,31H39.6c-0.1,0.3-0.2,0.6-0.3,0.8h12.9c0.2,0,0.4-0.2,0.4-0.4C52.7,31.2,52.5,31,52.2,31z"/>
						<path class="st14" d="M25.8,28.9c0-3.1,2-5.8,4.8-6.7v-2.9H18.9v20h11.7v-3.7C27.8,34.7,25.8,32.1,25.8,28.9z"/>
						<path class="st14" d="M32.7,19.4v2.5c0.1,0,0.1,0,0.2,0c2.2,0,4.1,1,5.4,2.5h14.8v-5H32.7z"/>
						<g>
							<path class="st14" d="M36.1,34c-0.1-0.1-0.2-0.3-0.3-0.4h-2.7c-0.2,0-0.4,0.2-0.4,0.4c0,0.2,0.2,0.4,0.4,0.4h3.4L36.1,34z"/>
							<path class="st14" d="M52.2,33.5h-13l0.8,0.8h12.2c0.2,0,0.4-0.2,0.4-0.4C52.7,33.7,52.5,33.5,52.2,33.5z"/>
						</g>
						<g>
							<path class="st14" d="M38.2,36h-5c-0.2,0-0.4,0.2-0.4,0.4c0,0.2,0.2,0.4,0.4,0.4H39L38.2,36z"/>
							<path class="st14" d="M52.2,36H41.7l0.8,0.8h9.7c0.2,0,0.4-0.2,0.4-0.4C52.7,36.2,52.5,36,52.2,36z"/>
						</g>
						<g>
							<path class="st14" d="M52.2,38.5H44c0.1,0.3,0.1,0.6,0,0.8h8.2c0.2,0,0.4-0.2,0.4-0.4C52.7,38.7,52.5,38.5,52.2,38.5z"/>
							<path class="st14" d="M40.7,38.5h-7.5c-0.2,0-0.4,0.2-0.4,0.4c0,0.2,0.2,0.4,0.4,0.4h8.4L40.7,38.5z"/>
						</g>
					</g>
				</g>
				<g>
					<rect x="8.8" y="25.1" class="st9" width="38.4" height="24.3"/>
					<g>
						<g>
							<path class="st12" d="M47.2,25.1v24.3H8.8V25.1H47.2 M48,24.3H8v26h40V24.3L48,24.3z"/>
						</g>
						<g>
							<path class="st12" d="M48,23.3v1.8H8v-1.8c0-0.9,0.7-1.7,1.7-1.7h36.7C47.3,21.6,48,22.4,48,23.3z"/>
						</g>
						<g>
							<path class="st9" d="M9.7,22.9c-0.2,0-0.4,0.2-0.4,0.4c0,0.2,0.2,0.4,0.4,0.4s0.4-0.2,0.4-0.4C10.1,23.1,9.9,22.9,9.7,22.9
								L9.7,22.9z"/>
						</g>
						<g>
							<path class="st14" d="M10.9,22.9c-0.2,0-0.4,0.2-0.4,0.4c0,0.2,0.2,0.4,0.4,0.4s0.4-0.2,0.4-0.4
								C11.3,23.1,11.1,22.9,10.9,22.9L10.9,22.9z"/>
						</g>
						<g>
							<path class="st14" d="M12.2,22.9c-0.2,0-0.4,0.2-0.4,0.4c0,0.2,0.2,0.4,0.4,0.4s0.4-0.2,0.4-0.4
								C12.6,23.1,12.4,22.9,12.2,22.9L12.2,22.9z"/>
						</g>
						<g>
							<path class="st14" d="M45.9,23.7h-30c-0.2,0-0.4-0.2-0.4-0.4c0-0.2,0.2-0.4,0.4-0.4h30c0.2,0,0.4,0.2,0.4,0.4
								C46.3,23.5,46.1,23.7,45.9,23.7z"/>
						</g>
					</g>
				</g>
			</g>
			<rect x="18.9" y="25.1" class="st12" width="28.3" height="24.3"/>
		</g>
		<g class="st3">
			<g>
				<path class="st14" d="M22.7,28.2h-2c-0.3,0-0.5-0.2-0.5-0.5s0.2-0.5,0.5-0.5h2c0.3,0,0.5,0.2,0.5,0.5S23,28.2,22.7,28.2z"/>
			</g>
			<g>
				<path class="st14" d="M36.5,28.2h-2c-0.3,0-0.5-0.2-0.5-0.5s0.2-0.5,0.5-0.5h2c0.3,0,0.5,0.2,0.5,0.5S36.8,28.2,36.5,28.2z"/>
			</g>
			<g>
				<path class="st9" d="M39,28.2h-0.5c-0.3,0-0.5-0.2-0.5-0.5s0.2-0.5,0.5-0.5H39c0.3,0,0.5,0.2,0.5,0.5S39.3,28.2,39,28.2z"/>
			</g>
			<g>
				<path class="st9" d="M36.3,31.2h-0.5c-0.3,0-0.5-0.2-0.5-0.5s0.2-0.5,0.5-0.5h0.5c0.3,0,0.5,0.2,0.5,0.5S36.5,31.2,36.3,31.2z"
					/>
			</g>
			<g>
				<path class="st14" d="M45.4,28.2H41c-0.3,0-0.5-0.2-0.5-0.5s0.2-0.5,0.5-0.5h4.4c0.3,0,0.5,0.2,0.5,0.5S45.7,28.2,45.4,28.2z"/>
			</g>
			<g>
				<path class="st9" d="M26.6,31.2h-4.4c-0.3,0-0.5-0.2-0.5-0.5s0.2-0.5,0.5-0.5h4.4c0.3,0,0.5,0.2,0.5,0.5S26.9,31.2,26.6,31.2z"
					/>
			</g>
			<g>
				<path class="st14" d="M34.9,34.2h-4.4c-0.3,0-0.5-0.2-0.5-0.5s0.2-0.5,0.5-0.5h4.4c0.3,0,0.5,0.2,0.5,0.5S35.2,34.2,34.9,34.2z"
					/>
			</g>
			<g>
				<path class="st14" d="M41.3,34.2h-4.4c-0.3,0-0.5-0.2-0.5-0.5s0.2-0.5,0.5-0.5h4.4c0.3,0,0.5,0.2,0.5,0.5S41.6,34.2,41.3,34.2z"
					/>
			</g>
			<g>
				<path class="st14" d="M32.5,28.2h-7.8c-0.3,0-0.5-0.2-0.5-0.5s0.2-0.5,0.5-0.5h7.8c0.3,0,0.5,0.2,0.5,0.5S32.8,28.2,32.5,28.2z"
					/>
			</g>
			<g>
				<path class="st14" d="M28.5,34.2h-7.8c-0.3,0-0.5-0.2-0.5-0.5s0.2-0.5,0.5-0.5h7.8c0.3,0,0.5,0.2,0.5,0.5S28.8,34.2,28.5,34.2z"
					/>
			</g>
			<g>
				<path class="st14" d="M33.8,31.2h-5.2c-0.3,0-0.5-0.2-0.5-0.5s0.2-0.5,0.5-0.5h5.2c0.3,0,0.5,0.2,0.5,0.5S34,31.2,33.8,31.2z"/>
			</g>
			<g>
				<path class="st9" d="M36.5,37.2h-2c-0.3,0-0.5-0.2-0.5-0.5s0.2-0.5,0.5-0.5h2c0.3,0,0.5,0.2,0.5,0.5S36.8,37.2,36.5,37.2z"/>
			</g>
			<g>
				<path class="st9" d="M39,37.2h-0.5c-0.3,0-0.5-0.2-0.5-0.5s0.2-0.5,0.5-0.5H39c0.3,0,0.5,0.2,0.5,0.5S39.3,37.2,39,37.2z"/>
			</g>
			<g>
				<path class="st9" d="M36.3,40.2h-0.5c-0.3,0-0.5-0.2-0.5-0.5s0.2-0.5,0.5-0.5h0.5c0.3,0,0.5,0.2,0.5,0.5S36.5,40.2,36.3,40.2z"
					/>
			</g>
			<g>
				<path class="st14" d="M45.4,37.2H41c-0.3,0-0.5-0.2-0.5-0.5s0.2-0.5,0.5-0.5h4.4c0.3,0,0.5,0.2,0.5,0.5S45.7,37.2,45.4,37.2z"/>
			</g>
			<g>
				<path class="st9" d="M26.6,40.2h-4.4c-0.3,0-0.5-0.2-0.5-0.5s0.2-0.5,0.5-0.5h4.4c0.3,0,0.5,0.2,0.5,0.5S26.9,40.2,26.6,40.2z"
					/>
			</g>
			<g>
				<path class="st9" d="M34.9,43.2h-4.4c-0.3,0-0.5-0.2-0.5-0.5s0.2-0.5,0.5-0.5h4.4c0.3,0,0.5,0.2,0.5,0.5S35.2,43.2,34.9,43.2z"
					/>
			</g>
			<g>
				<path class="st14" d="M41.3,43.2h-4.4c-0.3,0-0.5-0.2-0.5-0.5s0.2-0.5,0.5-0.5h4.4c0.3,0,0.5,0.2,0.5,0.5S41.6,43.2,41.3,43.2z"
					/>
			</g>
			<g>
				<path class="st14" d="M32.5,37.2h-7.8c-0.3,0-0.5-0.2-0.5-0.5s0.2-0.5,0.5-0.5h7.8c0.3,0,0.5,0.2,0.5,0.5S32.8,37.2,32.5,37.2z"
					/>
			</g>
			<g>
				<path class="st14" d="M28.5,43.2h-3.6c-0.3,0-0.5-0.2-0.5-0.5s0.2-0.5,0.5-0.5h3.6c0.3,0,0.5,0.2,0.5,0.5S28.8,43.2,28.5,43.2z"
					/>
			</g>
			<g>
				<path class="st9" d="M33.8,40.2h-5.2c-0.3,0-0.5-0.2-0.5-0.5s0.2-0.5,0.5-0.5h5.2c0.3,0,0.5,0.2,0.5,0.5S34,40.2,33.8,40.2z"/>
			</g>
		</g>
		<g class="st3">
			<path class="st12" d="M15.8,28.2h-4.4c-0.3,0-0.5-0.2-0.5-0.5s0.2-0.5,0.5-0.5h4.4c0.3,0,0.5,0.2,0.5,0.5S16.1,28.2,15.8,28.2z"
				/>
		</g>
		<g class="st3">
			<path class="st12" d="M15.8,31.2h-4.4c-0.3,0-0.5-0.2-0.5-0.5s0.2-0.5,0.5-0.5h4.4c0.3,0,0.5,0.2,0.5,0.5S16.1,31.2,15.8,31.2z"
				/>
		</g>
		<g class="st3">
			<path class="st12" d="M15.8,34.2h-4.4c-0.3,0-0.5-0.2-0.5-0.5s0.2-0.5,0.5-0.5h4.4c0.3,0,0.5,0.2,0.5,0.5S16.1,34.2,15.8,34.2z"
				/>
		</g>
		<g class="st3">
			<path class="st12" d="M15.8,37.2h-4.4c-0.3,0-0.5-0.2-0.5-0.5s0.2-0.5,0.5-0.5h4.4c0.3,0,0.5,0.2,0.5,0.5S16.1,37.2,15.8,37.2z"
				/>
		</g>
	</g>
</g>
</svg>
